<svg xmlns="http://www.w3.org/2000/svg" viewBox="0 0 141.3 131.7"><path d="M.1 15 23.2 0v106.3c-3 2-6.1 3.9-9.1 5.9-3.9 2.4-7.7 4.9-11.5 7.5-.7.5-1.6 1-2.4 1.3V15Z" style="fill:#e85984"/><path d="M23.2 0h101.6c3.5 0 6.9 2.8 7.2 6.4.1 6.3 0 12.7.1 19.1v72.9c0 2.7.1 5.3 0 8-11.3.1-22.7 0-34 0H27.3c-1.3 0-2.7 0-4-.1V0m46.4 22.1c-2.3 6.5-4 13.2-6.1 19.7L51.9 80.2c-.4 1-.7 2.1-.8 3.1h11.1c1.4-4.9 2.9-9.8 4.2-14.8.1-.4.3-.9.5-1.3H88c1.7 5.3 3.3 10.7 5.1 16h11.3c-2.2-7.5-4.8-15-7.1-22.4C93.1 47.9 89 34.9 84.8 22c-5-.1-10 0-15 0Z" style="fill:#e51050"/><path d="M77 30.1c.7 1.7 1 3.6 1.6 5.4 2.1 7.6 4.4 15.2 6.5 22.9H69.3c2.4-9.4 5.3-18.8 7.7-28.2Z" style="fill:#e51050"/><path d="M0 20c0-1.7-.1-3.4 0-5.1v106.4c-.3-1.1-.1-2.2-.1-3.3V20Z" style="fill:#231f20"/><path d="M69.7 22.1c5 0 10-.1 15 0C88.9 35 93 48 97.2 60.9c2.3 7.5 4.9 14.9 7.1 22.4H93c-1.8-5.3-3.4-10.7-5.1-16-7-.2-14 0-21.1 0-.2.4-.3.8-.5 1.3-1.4 4.9-2.8 9.8-4.2 14.8H51c.2-1.1.5-2.1.8-3.1l11.7-38.4c2.1-6.6 3.9-13.2 6.1-19.7m7.4 7.9c-2.5 9.4-5.3 18.8-7.7 28.2h15.8c-2.1-7.6-4.3-15.2-6.5-22.9-.6-1.8-.9-3.6-1.6-5.4Z" style="fill:#fff"/><path d="M132.1 25.5c3-.4 6.1-.2 9.1-.1.2 8 0 16 0 24v82.3H23.1c-2.3 0-4.9-.2-6.7-1.9-1.4-1.3-2.4-3-2.4-5v-12.6c3-2 6.1-3.9 9.1-5.9 1.3.1 2.7.1 4 .1h104.8c.2-2.7 0-5.3 0-8V25.5Z" style="fill:#770829"/></svg>