<svg xmlns="http://www.w3.org/2000/svg" viewBox="0 0 110.2 110"><path d="M87.8 98C83 94.4 76 91.7 68.5 88.8c-8.9-3.4-19-7.3-26.5-13.4-8.6-6.8-12.8-15.4-12.8-26.3S33.2 31 40.9 25c8.6-6.8 21.6-10.3 37.6-10.3s8.7.3 12.6.8c.3 0 .7-.1.8-.5.2-.3 0-.7-.2-.9C81.7 5 68.6 0 55 0S26.5 5.7 16.1 16.1C5.7 26.5 0 40.3 0 55s5.7 28.5 16.1 38.9C26.5 104.3 40.3 110 55 110s23.2-3.7 32.7-10.8c.2-.2.3-.4.3-.6 0-.2 0-.4-.2-.6Z" style="fill:#189eff"/><path d="M109.8 49.9c0-.2 0-.4-.3-.5C98.1 39.9 88.8 36 77.5 36s-10.6 1.2-13.7 3.6c-2.7 2.1-4.1 4.9-4.1 8.3 0 9.4 11.6 13.8 24.9 18.8 6.9 2.6 14 5.2 20.6 8.9h.7c.2 0 .4-.2.5-.5 2.5-6.4 3.8-13.2 3.8-20.1-.1-1.6-.2-3.3-.4-5.1Z" style="fill:#189eff"/></svg>