<svg xmlns="http://www.w3.org/2000/svg" viewBox="0 0 24.5 24.5"><path d="M12.3 0C5.5 0 0 5.5 0 12.3s5.5 12.3 12.3 12.3 12.3-5.5 12.3-12.3S19 0 12.3 0ZM1.2 12.3c0-1.6.3-3.1 1-4.5l5.3 14.4c-3.7-1.8-6.2-5.6-6.2-9.9Zm11.1 11c-1.1 0-2.1-.2-3.1-.4l3.3-9.6 3.4 9.3v.2c-1.1.4-2.4.6-3.7.6Zm1.5-16.2c.7 0 1.3-.1 1.3-.1.6 0 .5-.9 0-.9 0 0-1.8.1-2.9.1s-2.9-.1-2.9-.1c-.6 0-.7.9 0 .9 0 0 .6 0 1.2.1l1.7 4.7L9.8 19 5.5 7.1c.7 0 1.3-.1 1.3-.1.6 0 .5-.9 0-.9 0 0-1.8.1-2.9.1h-.7c1.8-3 5.2-5 9.1-5s5.5 1.1 7.5 2.9h-.1c-1.1 0-1.9.9-1.9 2s.5 1.7 1.1 2.6c.4.7.9 1.7.9 3s-.4 2-.8 3.6L17.9 19l-4-11.9ZM22 7c.9 1.6 1.4 3.4 1.4 5.3 0 4.1-2.2 7.6-5.5 9.5l3.4-9.7c.6-1.6.8-2.8.8-4V7Z" style="fill:currentColor"/></svg>